<?xml version="1.0" encoding="UTF-8" standalone="no"?>
<!DOCTYPE svg PUBLIC "-//W3C//DTD SVG 1.1//EN"
 "http://www.w3.org/Graphics/SVG/1.1/DTD/svg11.dtd">
<!-- Generated by graphviz version 12.2.0 (20241103.1931)
 -->
<!-- Title: LPG Pages: 1 -->
<svg width="878pt" height="634pt"
 viewBox="0.00 0.00 878.30 633.61" xmlns="http://www.w3.org/2000/svg" xmlns:xlink="http://www.w3.org/1999/xlink">
<g id="graph0" class="graph" transform="scale(1 1) rotate(0) translate(4 629.61)">
<title>LPG</title>
<polygon fill="white" stroke="none" points="-4,4 -4,-629.61 874.3,-629.61 874.3,4 -4,4"/>
<!-- Customer_1 -->
<g id="node1" class="node">
<title>Customer_1</title>
<ellipse fill="none" stroke="black" cx="204.05" cy="-561.61" rx="116.32" ry="63.99"/>
<text text-anchor="middle" x="204.05" y="-589.56" font-family="Times,serif" font-size="14.00">Customer</text>
<text text-anchor="middle" x="204.05" y="-573.06" font-family="Times,serif" font-size="14.00">name: &#39;Jožko Mrkvička&#39;</text>
<text text-anchor="middle" x="204.05" y="-556.56" font-family="Times,serif" font-size="14.00">email: &#39;jozko@gmail.com&#39;</text>
<text text-anchor="middle" x="204.05" y="-540.06" font-family="Times,serif" font-size="14.00">registrationDate: &#39;10&#45;04&#45;98&#39;</text>
<text text-anchor="middle" x="204.05" y="-523.56" font-family="Times,serif" font-size="14.00">identifier: &#39;VIP&#39;</text>
</g>
<!-- Order_0 -->
<g id="node5" class="node">
<title>Order_0</title>
<ellipse fill="none" stroke="black" cx="204.05" cy="-387.96" rx="73.36" ry="40.66"/>
<text text-anchor="middle" x="204.05" y="-399.41" font-family="Times,serif" font-size="14.00">Order</text>
<text text-anchor="middle" x="204.05" y="-382.91" font-family="Times,serif" font-size="14.00">orderNumber: 0</text>
<text text-anchor="middle" x="204.05" y="-366.41" font-family="Times,serif" font-size="14.00">price: 130</text>
</g>
<!-- Customer_1&#45;&gt;Order_0 -->
<g id="edge1" class="edge">
<title>Customer_1&#45;&gt;Order_0</title>
<path fill="none" stroke="black" d="M204.05,-497.18C204.05,-478.46 204.05,-458.21 204.05,-440.34"/>
<polygon fill="black" stroke="black" points="207.55,-440.5 204.05,-430.5 200.55,-440.5 207.55,-440.5"/>
<text text-anchor="middle" x="272.67" y="-466.32" font-family="Times,serif" font-size="14.00">REFERENCES_ORDER</text>
<text text-anchor="middle" x="272.67" y="-449.82" font-family="Times,serif" font-size="14.00">date: &quot;2024&#45;11&#45;01&quot;</text>
</g>
<!-- EmployeeRole_1 -->
<g id="node2" class="node">
<title>EmployeeRole_1</title>
<ellipse fill="none" stroke="black" cx="688.05" cy="-214.31" rx="144.43" ry="52.33"/>
<text text-anchor="middle" x="688.05" y="-234.01" font-family="Times,serif" font-size="14.00">EmployeeRole</text>
<text text-anchor="middle" x="688.05" y="-217.51" font-family="Times,serif" font-size="14.00">name: &#39;Dano Drevo&#39;</text>
<text text-anchor="middle" x="688.05" y="-201.01" font-family="Times,serif" font-size="14.00">email: &#39;gabor@szekeshfehervar.sk&#39;</text>
<text text-anchor="middle" x="688.05" y="-184.51" font-family="Times,serif" font-size="14.00">startDate: &#39;17&#45;2&#45;2014&#39;</text>
</g>
<!-- Warehouse_1 -->
<g id="node7" class="node">
<title>Warehouse_1</title>
<ellipse fill="none" stroke="black" cx="688.05" cy="-40.66" rx="167.76" ry="40.66"/>
<text text-anchor="middle" x="688.05" y="-52.11" font-family="Times,serif" font-size="14.00">Warehouse</text>
<text text-anchor="middle" x="688.05" y="-35.61" font-family="Times,serif" font-size="14.00">capacity: 9</text>
<text text-anchor="middle" x="688.05" y="-19.11" font-family="Times,serif" font-size="14.00">email: &#39;warehousesupport1@ppcshop.cz&#39;</text>
</g>
<!-- EmployeeRole_1&#45;&gt;Warehouse_1 -->
<g id="edge2" class="edge">
<title>EmployeeRole_1&#45;&gt;Warehouse_1</title>
<path fill="none" stroke="black" d="M688.05,-161.81C688.05,-140.05 688.05,-114.76 688.05,-93.01"/>
<polygon fill="black" stroke="black" points="691.55,-93.18 688.05,-83.18 684.55,-93.18 691.55,-93.18"/>
<text text-anchor="middle" x="779.17" y="-119.02" font-family="Times,serif" font-size="14.00">ASSIGNED_TO_WAREHOUSE</text>
<text text-anchor="middle" x="779.17" y="-102.52" font-family="Times,serif" font-size="14.00">since: &quot;2020&#45;01&#45;01&quot;</text>
</g>
<!-- Brand_Logitech -->
<g id="node3" class="node">
<title>Brand_Logitech</title>
<ellipse fill="none" stroke="black" cx="373.05" cy="-40.66" rx="129.58" ry="40.66"/>
<text text-anchor="middle" x="373.05" y="-52.11" font-family="Times,serif" font-size="14.00">Brand</text>
<text text-anchor="middle" x="373.05" y="-35.61" font-family="Times,serif" font-size="14.00">name: &#39;Logitech&#39;</text>
<text text-anchor="middle" x="373.05" y="-19.11" font-family="Times,serif" font-size="14.00">email: &#39;support@logitech.com&#39;</text>
</g>
<!-- Address_1 -->
<g id="node4" class="node">
<title>Address_1</title>
<ellipse fill="none" stroke="black" cx="129.05" cy="-214.31" rx="129.05" ry="63.99"/>
<text text-anchor="middle" x="129.05" y="-242.26" font-family="Times,serif" font-size="14.00">Address</text>
<text text-anchor="middle" x="129.05" y="-225.76" font-family="Times,serif" font-size="14.00">countryName: &#39;Hungary&#39;</text>
<text text-anchor="middle" x="129.05" y="-209.26" font-family="Times,serif" font-size="14.00">locality: &#39;Komarom&#39;</text>
<text text-anchor="middle" x="129.05" y="-192.76" font-family="Times,serif" font-size="14.00">streetAddress: &#39;Cajkovskeho 2&#39;</text>
<text text-anchor="middle" x="129.05" y="-176.26" font-family="Times,serif" font-size="14.00">postalCode: &#39;16900&#39;</text>
</g>
<!-- Order_0&#45;&gt;Address_1 -->
<g id="edge5" class="edge">
<title>Order_0&#45;&gt;Address_1</title>
<path fill="none" stroke="black" d="M187.03,-348.01C179.23,-330.16 169.72,-308.4 160.68,-287.71"/>
<polygon fill="black" stroke="black" points="163.96,-286.48 156.75,-278.72 157.55,-289.29 163.96,-286.48"/>
<text text-anchor="middle" x="241.77" y="-316" font-family="Times,serif" font-size="14.00">BILLING_ADDRESS</text>
<text text-anchor="middle" x="241.77" y="-299.5" font-family="Times,serif" font-size="14.00">deliveryTime: &quot;3 days&quot;</text>
</g>
<!-- Product_Logitech_MX_Keys -->
<g id="node6" class="node">
<title>Product_Logitech_MX_Keys</title>
<ellipse fill="none" stroke="black" cx="392.05" cy="-214.31" rx="115.79" ry="63.99"/>
<text text-anchor="middle" x="392.05" y="-242.26" font-family="Times,serif" font-size="14.00">Product</text>
<text text-anchor="middle" x="392.05" y="-225.76" font-family="Times,serif" font-size="14.00">name: &#39;Logitech MX Keys&#39;</text>
<text text-anchor="middle" x="392.05" y="-209.26" font-family="Times,serif" font-size="14.00">price: 50</text>
<text text-anchor="middle" x="392.05" y="-192.76" font-family="Times,serif" font-size="14.00">discount: 0</text>
<text text-anchor="middle" x="392.05" y="-176.26" font-family="Times,serif" font-size="14.00">valueAddedTax: 21</text>
</g>
<!-- Order_0&#45;&gt;Product_Logitech_MX_Keys -->
<g id="edge3" class="edge">
<title>Order_0&#45;&gt;Product_Logitech_MX_Keys</title>
<path fill="none" stroke="black" d="M261.02,-361.99C277.84,-353.08 295.59,-342.05 310.05,-329.3 324.64,-316.43 338.11,-300.5 349.73,-284.67"/>
<polygon fill="black" stroke="black" points="352.52,-286.79 355.48,-276.62 346.82,-282.73 352.52,-286.79"/>
<text text-anchor="middle" x="391.13" y="-316" font-family="Times,serif" font-size="14.00">ORDERED_ITEM</text>
<text text-anchor="middle" x="391.13" y="-299.5" font-family="Times,serif" font-size="14.00">quantity: 1</text>
</g>
<!-- Product_Logitech_MX_Keys&#45;&gt;Brand_Logitech -->
<g id="edge4" class="edge">
<title>Product_Logitech_MX_Keys&#45;&gt;Brand_Logitech</title>
<path fill="none" stroke="black" d="M385.08,-150.37C382.99,-131.53 380.73,-111.11 378.74,-93.1"/>
<polygon fill="black" stroke="black" points="382.22,-92.72 377.64,-83.16 375.26,-93.49 382.22,-92.72"/>
<text text-anchor="middle" x="406.17" y="-110.77" font-family="Times,serif" font-size="14.00">BRAND</text>
</g>
<!-- Product_Logitech_MX_Keys&#45;&gt;Warehouse_1 -->
<g id="edge6" class="edge">
<title>Product_Logitech_MX_Keys&#45;&gt;Warehouse_1</title>
<path fill="none" stroke="black" d="M471.37,-167.31C515.85,-141.51 570.97,-109.55 614.49,-84.32"/>
<polygon fill="black" stroke="black" points="616.23,-87.35 623.12,-79.31 612.72,-81.3 616.23,-87.35"/>
<text text-anchor="middle" x="626.23" y="-110.77" font-family="Times,serif" font-size="14.00">LOCATED_AT</text>
</g>
</g>
</svg>
